<?xml version="1.0" encoding="utf-8" standalone="no"?>
<!DOCTYPE svg PUBLIC "-//W3C//DTD SVG 1.1//EN"
  "http://www.w3.org/Graphics/SVG/1.1/DTD/svg11.dtd">
<!-- Created with matplotlib (http://matplotlib.org/) -->
<svg height="216pt" version="1.1" viewBox="0 0 1080 216" width="1080pt" xmlns="http://www.w3.org/2000/svg" xmlns:xlink="http://www.w3.org/1999/xlink">
 <defs>
  <style type="text/css">
*{stroke-linecap:butt;stroke-linejoin:round;}
  </style>
 </defs>
 <g id="figure_1">
  <g id="patch_1">
   <path d="M 0 216 
L 1080 216 
L 1080 0 
L 0 0 
z
" style="fill:#ffffff;"/>
  </g>
  <g id="axes_1">
   <g id="patch_2">
    <path d="M 135 172.8 
L 972 172.8 
L 972 43.2 
L 135 43.2 
z
" style="fill:#ffffff;"/>
   </g>
   <g id="patch_3">
    <path clip-path="url(#p40be424b39)" d="M 173.045455 117.257143 
L 298.513434 117.257143 
L 298.513434 98.742857 
L 173.045455 98.742857 
z
" style="fill:#a32fee;fill-opacity:0.039264;stroke:#000000;stroke-linejoin:miter;stroke-width:0.5;"/>
   </g>
   <g id="patch_4">
    <path clip-path="url(#p40be424b39)" d="M 300.765639 117.257143 
L 304.253195 117.257143 
L 304.253195 98.742857 
L 300.765639 98.742857 
z
" style="fill:#a32fee;fill-opacity:0.015717;stroke:#000000;stroke-linejoin:miter;stroke-width:0.5;"/>
   </g>
   <g id="patch_5">
    <path clip-path="url(#p40be424b39)" d="M 349.330907 117.257143 
L 354.877382 117.257143 
L 354.877382 98.742857 
L 349.330907 98.742857 
z
" style="fill:#a32fee;fill-opacity:0.041646;stroke:#000000;stroke-linejoin:miter;stroke-width:0.5;"/>
   </g>
   <g id="patch_6">
    <path clip-path="url(#p40be424b39)" d="M 377.475064 117.257143 
L 381.845014 117.257143 
L 381.845014 98.742857 
L 377.475064 98.742857 
z
" style="fill:#a32fee;fill-opacity:0.032001;stroke:#000000;stroke-linejoin:miter;stroke-width:0.5;"/>
   </g>
   <g id="patch_7">
    <path clip-path="url(#p40be424b39)" d="M 391.07233 117.257143 
L 392.41693 117.257143 
L 392.41693 98.742857 
L 391.07233 98.742857 
z
" style="fill:#a32fee;fill-opacity:0.027757;stroke:#000000;stroke-linejoin:miter;stroke-width:0.5;"/>
   </g>
   <g id="patch_8">
    <path clip-path="url(#p40be424b39)" d="M 394.97167 117.257143 
L 400.770257 117.257143 
L 400.770257 98.742857 
L 394.97167 98.742857 
z
" style="fill:#a32fee;fill-opacity:0.015524;stroke:#000000;stroke-linejoin:miter;stroke-width:0.5;"/>
   </g>
   <g id="patch_9">
    <path clip-path="url(#p40be424b39)" d="M 406.703304 117.257143 
L 413.594379 117.257143 
L 413.594379 98.742857 
L 406.703304 98.742857 
z
" style="fill:#a32fee;fill-opacity:0.032622;stroke:#000000;stroke-linejoin:miter;stroke-width:0.5;"/>
   </g>
   <g id="patch_10">
    <path clip-path="url(#p40be424b39)" d="M 428.074039 117.257143 
L 431.603614 117.257143 
L 431.603614 98.742857 
L 428.074039 98.742857 
z
" style="fill:#a32fee;fill-opacity:0.102239;stroke:#000000;stroke-linejoin:miter;stroke-width:0.5;"/>
   </g>
   <g id="patch_11">
    <path clip-path="url(#p40be424b39)" d="M 442.360413 117.257143 
L 444.377313 117.257143 
L 444.377313 98.742857 
L 442.360413 98.742857 
z
" style="fill:#a32fee;fill-opacity:0.057343;stroke:#000000;stroke-linejoin:miter;stroke-width:0.5;"/>
   </g>
   <g id="patch_12">
    <path clip-path="url(#p40be424b39)" d="M 454.789559 117.257143 
L 458.277115 117.257143 
L 458.277115 98.742857 
L 454.789559 98.742857 
z
" style="fill:#a32fee;fill-opacity:0.044279;stroke:#000000;stroke-linejoin:miter;stroke-width:0.5;"/>
   </g>
   <g id="patch_13">
    <path clip-path="url(#p40be424b39)" d="M 484.480006 117.257143 
L 493.093849 117.257143 
L 493.093849 98.742857 
L 484.480006 98.742857 
z
" style="fill:#a32fee;fill-opacity:0.120578;stroke:#000000;stroke-linejoin:miter;stroke-width:0.5;"/>
   </g>
   <g id="patch_14">
    <path clip-path="url(#p40be424b39)" d="M 503.674169 117.257143 
L 516.237775 117.257143 
L 516.237775 98.742857 
L 503.674169 98.742857 
z
" style="fill:#a32fee;fill-opacity:0.77907;stroke:#000000;stroke-linejoin:miter;stroke-width:0.5;"/>
   </g>
   <g id="patch_15">
    <path clip-path="url(#p40be424b39)" d="M 539.902733 117.257143 
L 546.289583 117.257143 
L 546.289583 98.742857 
L 539.902733 98.742857 
z
" style="fill:#a32fee;fill-opacity:0.121648;stroke:#000000;stroke-linejoin:miter;stroke-width:0.5;"/>
   </g>
   <g id="patch_16">
    <path clip-path="url(#p40be424b39)" d="M 583.341714 117.257143 
L 588.257908 117.257143 
L 588.257908 98.742857 
L 583.341714 98.742857 
z
" style="fill:#a32fee;fill-opacity:0.162165;stroke:#000000;stroke-linejoin:miter;stroke-width:0.5;"/>
   </g>
   <g id="patch_17">
    <path clip-path="url(#p40be424b39)" d="M 594.880062 117.257143 
L 600.342499 117.257143 
L 600.342499 98.742857 
L 594.880062 98.742857 
z
" style="fill:#a32fee;stroke:#000000;stroke-linejoin:miter;stroke-width:0.5;"/>
   </g>
   <g id="patch_18">
    <path clip-path="url(#p40be424b39)" d="M 624.049477 117.257143 
L 627.915201 117.257143 
L 627.915201 98.742857 
L 624.049477 98.742857 
z
" style="fill:#a32fee;fill-opacity:0.004605;stroke:#000000;stroke-linejoin:miter;stroke-width:0.5;"/>
   </g>
   <g id="patch_19">
    <path clip-path="url(#p40be424b39)" d="M 648.15143 117.257143 
L 649.454011 117.257143 
L 649.454011 98.742857 
L 648.15143 98.742857 
z
" style="fill:#a32fee;fill-opacity:0.000345;stroke:#000000;stroke-linejoin:miter;stroke-width:0.5;"/>
   </g>
   <g id="patch_20">
    <path clip-path="url(#p40be424b39)" d="M 926.307133 117.257143 
L 933.954545 117.257143 
L 933.954545 98.742857 
L 926.307133 98.742857 
z
" style="fill:#a32fee;fill-opacity:0.012377;stroke:#000000;stroke-linejoin:miter;stroke-width:0.5;"/>
   </g>
   <g id="patch_21">
    <path d="M 298.530241 98.742857 
Q 323.930574 88.582724 349.330907 98.742857 
" style="fill:none;opacity:0.2;stroke:#000000;stroke-linecap:round;"/>
   </g>
   <g id="patch_22">
    <path d="M 354.894189 98.742857 
Q 366.184626 94.226682 377.475064 98.742857 
" style="fill:none;opacity:0.2;stroke:#000000;stroke-linecap:round;"/>
   </g>
   <g id="patch_23">
    <path d="M 381.861821 98.742857 
Q 386.467076 96.900755 391.07233 98.742857 
" style="fill:none;opacity:0.2;stroke:#000000;stroke-linecap:round;"/>
   </g>
   <g id="patch_24">
    <path d="M 392.433738 98.742857 
Q 393.702704 98.235271 394.97167 98.742857 
" style="fill:none;opacity:0.2;stroke:#000000;stroke-linecap:round;"/>
   </g>
   <g id="patch_25">
    <path d="M 400.787065 98.742857 
Q 403.745185 97.559609 406.703304 98.742857 
" style="fill:none;opacity:0.2;stroke:#000000;stroke-linecap:round;"/>
   </g>
   <g id="patch_26">
    <path d="M 400.787065 98.742857 
Q 403.745185 96.967985 406.703304 98.742857 
" style="fill:none;opacity:0.2;stroke:#000000;stroke-linecap:round;"/>
   </g>
   <g id="patch_27">
    <path d="M 413.611187 98.742857 
Q 420.842613 95.850287 428.074039 98.742857 
" style="fill:none;opacity:0.2;stroke:#000000;stroke-linecap:round;"/>
   </g>
   <g id="patch_28">
    <path d="M 458.293922 98.742857 
Q 471.386964 93.50564 484.480006 98.742857 
" style="fill:none;opacity:0.2;stroke:#000000;stroke-linecap:round;"/>
   </g>
   <g id="patch_29">
    <path d="M 516.254582 98.742857 
Q 528.078658 94.013227 539.902733 98.742857 
" style="fill:none;opacity:0.2;stroke:#000000;stroke-linecap:round;"/>
   </g>
   <g id="patch_30">
    <path d="M 546.30639 98.742857 
Q 564.824052 91.335792 583.341714 98.742857 
" style="fill:none;opacity:0.2;stroke:#000000;stroke-linecap:round;"/>
   </g>
   <g id="patch_31">
    <path d="M 588.274715 98.742857 
Q 591.577389 97.421788 594.880062 98.742857 
" style="fill:none;opacity:0.2;stroke:#000000;stroke-linecap:round;"/>
   </g>
   <g id="patch_32">
    <path d="M 600.359307 98.742857 
Q 612.204392 94.004823 624.049477 98.742857 
" style="fill:none;opacity:0.2;stroke:#000000;stroke-linecap:round;"/>
   </g>
   <g id="patch_33">
    <path clip-path="url(#p40be424b39)" d="M 454.789559 117.257143 
C 416.744104 136.697143 584.343441 136.697143 546.297987 117.257143 
" style="fill:none;opacity:0.1;stroke:#000000;stroke-linejoin:miter;"/>
   </g>
   <g id="patch_34">
    <path clip-path="url(#p40be424b39)" d="M 583.341714 117.257143 
C 545.29626 136.697143 638.396358 136.697143 600.350903 117.257143 
" style="fill:none;opacity:0.1;stroke:#000000;stroke-linejoin:miter;"/>
   </g>
   <g id="patch_35">
    <path clip-path="url(#p40be424b39)" d="M 583.341714 117.257143 
C 545.29626 137.171868 638.396358 137.171868 600.350903 117.257143 
" style="fill:none;opacity:0.1;stroke:#000000;stroke-linejoin:miter;"/>
   </g>
   <g id="patch_36">
    <path clip-path="url(#p40be424b39)" d="M 583.341714 117.257143 
C 545.29626 137.646593 638.396358 137.646593 600.350903 117.257143 
" style="fill:none;opacity:0.1;stroke:#000000;stroke-linejoin:miter;"/>
   </g>
   <g id="patch_37">
    <path clip-path="url(#p40be424b39)" d="M 583.341714 117.257143 
C 545.29626 138.121319 638.396358 138.121319 600.350903 117.257143 
" style="fill:none;opacity:0.1;stroke:#000000;stroke-linejoin:miter;"/>
   </g>
   <g id="patch_38">
    <path clip-path="url(#p40be424b39)" d="M 583.341714 117.257143 
C 545.29626 138.596044 638.396358 138.596044 600.350903 117.257143 
" style="fill:none;opacity:0.1;stroke:#000000;stroke-linejoin:miter;"/>
   </g>
   <g id="patch_39">
    <path clip-path="url(#p40be424b39)" d="M 583.341714 117.257143 
C 545.29626 139.070769 638.396358 139.070769 600.350903 117.257143 
" style="fill:none;opacity:0.1;stroke:#000000;stroke-linejoin:miter;"/>
   </g>
   <g id="patch_40">
    <path clip-path="url(#p40be424b39)" d="M 583.341714 117.257143 
C 545.29626 139.545495 638.396358 139.545495 600.350903 117.257143 
" style="fill:none;opacity:0.1;stroke:#000000;stroke-linejoin:miter;"/>
   </g>
   <g id="patch_41">
    <path clip-path="url(#p40be424b39)" d="M 583.341714 117.257143 
C 545.29626 140.02022 638.396358 140.02022 600.350903 117.257143 
" style="fill:none;opacity:0.1;stroke:#000000;stroke-linejoin:miter;"/>
   </g>
   <g id="patch_42">
    <path clip-path="url(#p40be424b39)" d="M 583.341714 117.257143 
C 545.29626 140.494945 638.396358 140.494945 600.350903 117.257143 
" style="fill:none;opacity:0.1;stroke:#000000;stroke-linejoin:miter;"/>
   </g>
   <g id="patch_43">
    <path clip-path="url(#p40be424b39)" d="M 583.341714 117.257143 
C 545.29626 140.96967 638.396358 140.96967 600.350903 117.257143 
" style="fill:none;opacity:0.1;stroke:#000000;stroke-linejoin:miter;"/>
   </g>
   <g id="patch_44">
    <path clip-path="url(#p40be424b39)" d="M 583.341714 117.257143 
C 545.29626 141.444396 638.396358 141.444396 600.350903 117.257143 
" style="fill:none;opacity:0.1;stroke:#000000;stroke-linejoin:miter;"/>
   </g>
   <g id="patch_45">
    <path clip-path="url(#p40be424b39)" d="M 583.341714 117.257143 
C 545.29626 141.919121 638.396358 141.919121 600.350903 117.257143 
" style="fill:none;opacity:0.1;stroke:#000000;stroke-linejoin:miter;"/>
   </g>
   <g id="patch_46">
    <path clip-path="url(#p40be424b39)" d="M 583.341714 117.257143 
C 545.29626 142.393846 638.396358 142.393846 600.350903 117.257143 
" style="fill:none;opacity:0.1;stroke:#000000;stroke-linejoin:miter;"/>
   </g>
   <g id="patch_47">
    <path clip-path="url(#p40be424b39)" d="M 583.341714 117.257143 
C 545.29626 142.868571 638.396358 142.868571 600.350903 117.257143 
" style="fill:none;opacity:0.1;stroke:#000000;stroke-linejoin:miter;"/>
   </g>
   <g id="patch_48">
    <path clip-path="url(#p40be424b39)" d="M 583.341714 117.257143 
C 545.29626 143.343297 638.396358 143.343297 600.350903 117.257143 
" style="fill:none;opacity:0.1;stroke:#000000;stroke-linejoin:miter;"/>
   </g>
   <g id="patch_49">
    <path clip-path="url(#p40be424b39)" d="M 583.341714 117.257143 
C 545.29626 143.818022 638.396358 143.818022 600.350903 117.257143 
" style="fill:none;opacity:0.1;stroke:#000000;stroke-linejoin:miter;"/>
   </g>
   <g id="patch_50">
    <path clip-path="url(#p40be424b39)" d="M 583.341714 117.257143 
C 545.29626 144.292747 638.396358 144.292747 600.350903 117.257143 
" style="fill:none;opacity:0.1;stroke:#000000;stroke-linejoin:miter;"/>
   </g>
   <g id="patch_51">
    <path clip-path="url(#p40be424b39)" d="M 583.341714 117.257143 
C 545.29626 144.767473 638.396358 144.767473 600.350903 117.257143 
" style="fill:none;opacity:0.1;stroke:#000000;stroke-linejoin:miter;"/>
   </g>
   <g id="patch_52">
    <path clip-path="url(#p40be424b39)" d="M 583.341714 117.257143 
C 545.29626 145.242198 638.396358 145.242198 600.350903 117.257143 
" style="fill:none;opacity:0.1;stroke:#000000;stroke-linejoin:miter;"/>
   </g>
   <g id="patch_53">
    <path clip-path="url(#p40be424b39)" d="M 583.341714 117.257143 
C 545.29626 145.716923 638.396358 145.716923 600.350903 117.257143 
" style="fill:none;opacity:0.1;stroke:#000000;stroke-linejoin:miter;"/>
   </g>
   <g id="patch_54">
    <path clip-path="url(#p40be424b39)" d="M 583.341714 117.257143 
C 545.29626 146.191648 638.396358 146.191648 600.350903 117.257143 
" style="fill:none;opacity:0.1;stroke:#000000;stroke-linejoin:miter;"/>
   </g>
   <g id="patch_55">
    <path clip-path="url(#p40be424b39)" d="M 583.341714 117.257143 
C 545.29626 146.666374 638.396358 146.666374 600.350903 117.257143 
" style="fill:none;opacity:0.1;stroke:#000000;stroke-linejoin:miter;"/>
   </g>
   <g id="patch_56">
    <path clip-path="url(#p40be424b39)" d="M 583.341714 117.257143 
C 545.29626 147.141099 638.396358 147.141099 600.350903 117.257143 
" style="fill:none;opacity:0.1;stroke:#000000;stroke-linejoin:miter;"/>
   </g>
   <g id="patch_57">
    <path clip-path="url(#p40be424b39)" d="M 583.341714 117.257143 
C 545.29626 147.615824 638.396358 147.615824 600.350903 117.257143 
" style="fill:none;opacity:0.1;stroke:#000000;stroke-linejoin:miter;"/>
   </g>
   <g id="patch_58">
    <path clip-path="url(#p40be424b39)" d="M 583.341714 117.257143 
C 545.29626 148.090549 638.396358 148.090549 600.350903 117.257143 
" style="fill:none;opacity:0.1;stroke:#000000;stroke-linejoin:miter;"/>
   </g>
   <g id="patch_59">
    <path clip-path="url(#p40be424b39)" d="M 583.341714 117.257143 
C 545.29626 148.565275 638.396358 148.565275 600.350903 117.257143 
" style="fill:none;opacity:0.1;stroke:#000000;stroke-linejoin:miter;"/>
   </g>
   <g id="patch_60">
    <path clip-path="url(#p40be424b39)" d="M 583.341714 117.257143 
C 545.29626 149.04 638.396358 149.04 600.350903 117.257143 
" style="fill:none;opacity:0.1;stroke:#000000;stroke-linejoin:miter;"/>
   </g>
   <g id="patch_61">
    <path clip-path="url(#p40be424b39)" d="M 583.341714 117.257143 
C 545.29626 149.514725 638.396358 149.514725 600.350903 117.257143 
" style="fill:none;opacity:0.1;stroke:#000000;stroke-linejoin:miter;"/>
   </g>
   <g id="patch_62">
    <path clip-path="url(#p40be424b39)" d="M 583.341714 117.257143 
C 545.29626 149.989451 638.396358 149.989451 600.350903 117.257143 
" style="fill:none;opacity:0.1;stroke:#000000;stroke-linejoin:miter;"/>
   </g>
   <g id="patch_63">
    <path clip-path="url(#p40be424b39)" d="M 583.341714 117.257143 
C 545.29626 150.464176 638.396358 150.464176 600.350903 117.257143 
" style="fill:none;opacity:0.1;stroke:#000000;stroke-linejoin:miter;"/>
   </g>
   <g id="patch_64">
    <path clip-path="url(#p40be424b39)" d="M 583.341714 117.257143 
C 545.29626 150.938901 638.396358 150.938901 600.350903 117.257143 
" style="fill:none;opacity:0.1;stroke:#000000;stroke-linejoin:miter;"/>
   </g>
   <g id="patch_65">
    <path clip-path="url(#p40be424b39)" d="M 583.341714 117.257143 
C 545.29626 151.413626 638.396358 151.413626 600.350903 117.257143 
" style="fill:none;opacity:0.1;stroke:#000000;stroke-linejoin:miter;"/>
   </g>
   <g id="patch_66">
    <path clip-path="url(#p40be424b39)" d="M 583.341714 117.257143 
C 545.29626 151.888352 638.396358 151.888352 600.350903 117.257143 
" style="fill:none;opacity:0.1;stroke:#000000;stroke-linejoin:miter;"/>
   </g>
   <g id="patch_67">
    <path clip-path="url(#p40be424b39)" d="M 583.341714 117.257143 
C 545.29626 152.363077 638.396358 152.363077 600.350903 117.257143 
" style="fill:none;opacity:0.1;stroke:#000000;stroke-linejoin:miter;"/>
   </g>
   <g id="patch_68">
    <path clip-path="url(#p40be424b39)" d="M 583.341714 117.257143 
C 545.29626 152.837802 638.396358 152.837802 600.350903 117.257143 
" style="fill:none;opacity:0.1;stroke:#000000;stroke-linejoin:miter;"/>
   </g>
   <g id="patch_69">
    <path clip-path="url(#p40be424b39)" d="M 583.341714 117.257143 
C 545.29626 153.312527 638.396358 153.312527 600.350903 117.257143 
" style="fill:none;opacity:0.1;stroke:#000000;stroke-linejoin:miter;"/>
   </g>
   <g id="patch_70">
    <path clip-path="url(#p40be424b39)" d="M 583.341714 117.257143 
C 545.29626 153.787253 638.396358 153.787253 600.350903 117.257143 
" style="fill:none;opacity:0.1;stroke:#000000;stroke-linejoin:miter;"/>
   </g>
   <g id="patch_71">
    <path clip-path="url(#p40be424b39)" d="M 583.341714 117.257143 
C 545.29626 154.261978 638.396358 154.261978 600.350903 117.257143 
" style="fill:none;opacity:0.1;stroke:#000000;stroke-linejoin:miter;"/>
   </g>
   <g id="patch_72">
    <path clip-path="url(#p40be424b39)" d="M 583.341714 117.257143 
C 545.29626 154.736703 638.396358 154.736703 600.350903 117.257143 
" style="fill:none;opacity:0.1;stroke:#000000;stroke-linejoin:miter;"/>
   </g>
   <g id="patch_73">
    <path clip-path="url(#p40be424b39)" d="M 484.480006 117.257143 
C 446.434551 136.697143 554.291633 136.697143 516.246179 117.257143 
" style="fill:none;opacity:0.1;stroke:#000000;stroke-linejoin:miter;"/>
   </g>
   <g id="patch_74">
    <path clip-path="url(#p40be424b39)" d="M 503.674169 117.257143 
C 465.628715 136.697143 554.291633 136.697143 516.246179 117.257143 
" style="fill:none;opacity:0.1;stroke:#000000;stroke-linejoin:miter;"/>
   </g>
   <g id="patch_75">
    <path d="M 135 172.8 
L 135 43.2 
" style="fill:none;stroke:#000000;stroke-linecap:square;stroke-linejoin:miter;stroke-width:0.8;"/>
   </g>
   <g id="patch_76">
    <path d="M 972 172.8 
L 972 43.2 
" style="fill:none;stroke:#000000;stroke-linecap:square;stroke-linejoin:miter;stroke-width:0.8;"/>
   </g>
   <g id="patch_77">
    <path d="M 135 172.8 
L 972 172.8 
" style="fill:none;stroke:#000000;stroke-linecap:square;stroke-linejoin:miter;stroke-width:0.8;"/>
   </g>
   <g id="patch_78">
    <path d="M 135 43.2 
L 972 43.2 
" style="fill:none;stroke:#000000;stroke-linecap:square;stroke-linejoin:miter;stroke-width:0.8;"/>
   </g>
   <g id="text_1">
    <!-- EXAMPLE -->
    <defs>
     <path d="M 9.8125 72.90625 
L 55.90625 72.90625 
L 55.90625 64.59375 
L 19.671875 64.59375 
L 19.671875 43.015625 
L 54.390625 43.015625 
L 54.390625 34.71875 
L 19.671875 34.71875 
L 19.671875 8.296875 
L 56.78125 8.296875 
L 56.78125 0 
L 9.8125 0 
z
" id="DejaVuSans-45"/>
     <path d="M 6.296875 72.90625 
L 16.890625 72.90625 
L 35.015625 45.796875 
L 53.21875 72.90625 
L 63.8125 72.90625 
L 40.375 37.890625 
L 65.375 0 
L 54.78125 0 
L 34.28125 31 
L 13.625 0 
L 2.984375 0 
L 29 38.921875 
z
" id="DejaVuSans-58"/>
     <path d="M 34.1875 63.1875 
L 20.796875 26.90625 
L 47.609375 26.90625 
z
M 28.609375 72.90625 
L 39.796875 72.90625 
L 67.578125 0 
L 57.328125 0 
L 50.6875 18.703125 
L 17.828125 18.703125 
L 11.1875 0 
L 0.78125 0 
z
" id="DejaVuSans-41"/>
     <path d="M 9.8125 72.90625 
L 24.515625 72.90625 
L 43.109375 23.296875 
L 61.8125 72.90625 
L 76.515625 72.90625 
L 76.515625 0 
L 66.890625 0 
L 66.890625 64.015625 
L 48.09375 14.015625 
L 38.1875 14.015625 
L 19.390625 64.015625 
L 19.390625 0 
L 9.8125 0 
z
" id="DejaVuSans-4d"/>
     <path d="M 19.671875 64.796875 
L 19.671875 37.40625 
L 32.078125 37.40625 
Q 38.96875 37.40625 42.71875 40.96875 
Q 46.484375 44.53125 46.484375 51.125 
Q 46.484375 57.671875 42.71875 61.234375 
Q 38.96875 64.796875 32.078125 64.796875 
z
M 9.8125 72.90625 
L 32.078125 72.90625 
Q 44.34375 72.90625 50.609375 67.359375 
Q 56.890625 61.8125 56.890625 51.125 
Q 56.890625 40.328125 50.609375 34.8125 
Q 44.34375 29.296875 32.078125 29.296875 
L 19.671875 29.296875 
L 19.671875 0 
L 9.8125 0 
z
" id="DejaVuSans-50"/>
     <path d="M 9.8125 72.90625 
L 19.671875 72.90625 
L 19.671875 8.296875 
L 55.171875 8.296875 
L 55.171875 0 
L 9.8125 0 
z
" id="DejaVuSans-4c"/>
    </defs>
    <g transform="translate(525.565313 37.2)scale(0.12 -0.12)">
     <use xlink:href="#DejaVuSans-45"/>
     <use x="63.183594" xlink:href="#DejaVuSans-58"/>
     <use x="131.689453" xlink:href="#DejaVuSans-41"/>
     <use x="200.097656" xlink:href="#DejaVuSans-4d"/>
     <use x="286.376953" xlink:href="#DejaVuSans-50"/>
     <use x="346.679688" xlink:href="#DejaVuSans-4c"/>
     <use x="402.392578" xlink:href="#DejaVuSans-45"/>
    </g>
   </g>
  </g>
  <g id="text_2">
   <!-- ENST00000335312 -->
   <defs>
    <path d="M 9.1875 72.90625 
L 59.90625 72.90625 
L 59.90625 58.6875 
L 27.984375 58.6875 
L 27.984375 45.125 
L 58.015625 45.125 
L 58.015625 30.90625 
L 27.984375 30.90625 
L 27.984375 14.203125 
L 60.984375 14.203125 
L 60.984375 0 
L 9.1875 0 
z
" id="DejaVuSans-Bold-45"/>
    <path d="M 9.1875 72.90625 
L 30.171875 72.90625 
L 56.6875 22.90625 
L 56.6875 72.90625 
L 74.515625 72.90625 
L 74.515625 0 
L 53.515625 0 
L 27 50 
L 27 0 
L 9.1875 0 
z
" id="DejaVuSans-Bold-4e"/>
    <path d="M 59.90625 70.609375 
L 59.90625 55.171875 
Q 53.90625 57.859375 48.1875 59.21875 
Q 42.484375 60.59375 37.40625 60.59375 
Q 30.671875 60.59375 27.4375 58.734375 
Q 24.21875 56.890625 24.21875 52.984375 
Q 24.21875 50.046875 26.390625 48.40625 
Q 28.5625 46.78125 34.28125 45.609375 
L 42.28125 44 
Q 54.4375 41.546875 59.5625 36.5625 
Q 64.703125 31.59375 64.703125 22.40625 
Q 64.703125 10.359375 57.546875 4.46875 
Q 50.390625 -1.421875 35.6875 -1.421875 
Q 28.765625 -1.421875 21.78125 -0.09375 
Q 14.796875 1.21875 7.8125 3.8125 
L 7.8125 19.671875 
Q 14.796875 15.96875 21.3125 14.078125 
Q 27.828125 12.203125 33.890625 12.203125 
Q 40.046875 12.203125 43.3125 14.25 
Q 46.578125 16.3125 46.578125 20.125 
Q 46.578125 23.53125 44.359375 25.390625 
Q 42.140625 27.25 35.5 28.71875 
L 28.21875 30.328125 
Q 17.28125 32.671875 12.21875 37.796875 
Q 7.171875 42.921875 7.171875 51.609375 
Q 7.171875 62.5 14.203125 68.359375 
Q 21.234375 74.21875 34.421875 74.21875 
Q 40.4375 74.21875 46.78125 73.3125 
Q 53.125 72.40625 59.90625 70.609375 
z
" id="DejaVuSans-Bold-53"/>
    <path d="M 0.484375 72.90625 
L 67.671875 72.90625 
L 67.671875 58.6875 
L 43.5 58.6875 
L 43.5 0 
L 24.703125 0 
L 24.703125 58.6875 
L 0.484375 58.6875 
z
" id="DejaVuSans-Bold-54"/>
    <path d="M 46 36.53125 
Q 46 50.203125 43.4375 55.78125 
Q 40.875 61.375 34.8125 61.375 
Q 28.765625 61.375 26.171875 55.78125 
Q 23.578125 50.203125 23.578125 36.53125 
Q 23.578125 22.703125 26.171875 17.03125 
Q 28.765625 11.375 34.8125 11.375 
Q 40.828125 11.375 43.40625 17.03125 
Q 46 22.703125 46 36.53125 
z
M 64.796875 36.375 
Q 64.796875 18.265625 56.984375 8.421875 
Q 49.171875 -1.421875 34.8125 -1.421875 
Q 20.40625 -1.421875 12.59375 8.421875 
Q 4.78125 18.265625 4.78125 36.375 
Q 4.78125 54.546875 12.59375 64.375 
Q 20.40625 74.21875 34.8125 74.21875 
Q 49.171875 74.21875 56.984375 64.375 
Q 64.796875 54.546875 64.796875 36.375 
z
" id="DejaVuSans-Bold-30"/>
    <path d="M 46.578125 39.3125 
Q 53.953125 37.40625 57.78125 32.6875 
Q 61.625 27.984375 61.625 20.703125 
Q 61.625 9.859375 53.3125 4.21875 
Q 45.015625 -1.421875 29.109375 -1.421875 
Q 23.484375 -1.421875 17.84375 -0.515625 
Q 12.203125 0.390625 6.6875 2.203125 
L 6.6875 16.703125 
Q 11.96875 14.0625 17.15625 12.71875 
Q 22.359375 11.375 27.390625 11.375 
Q 34.859375 11.375 38.84375 13.953125 
Q 42.828125 16.546875 42.828125 21.390625 
Q 42.828125 26.375 38.75 28.9375 
Q 34.671875 31.5 26.703125 31.5 
L 19.1875 31.5 
L 19.1875 43.609375 
L 27.09375 43.609375 
Q 34.1875 43.609375 37.640625 45.828125 
Q 41.109375 48.046875 41.109375 52.59375 
Q 41.109375 56.78125 37.734375 59.078125 
Q 34.375 61.375 28.21875 61.375 
Q 23.6875 61.375 19.046875 60.34375 
Q 14.40625 59.328125 9.8125 57.328125 
L 9.8125 71.09375 
Q 15.375 72.65625 20.84375 73.4375 
Q 26.3125 74.21875 31.59375 74.21875 
Q 45.796875 74.21875 52.84375 69.546875 
Q 59.90625 64.890625 59.90625 55.515625 
Q 59.90625 49.125 56.53125 45.046875 
Q 53.171875 40.96875 46.578125 39.3125 
z
" id="DejaVuSans-Bold-33"/>
    <path d="M 10.59375 72.90625 
L 57.328125 72.90625 
L 57.328125 59.078125 
L 25.59375 59.078125 
L 25.59375 47.796875 
Q 27.734375 48.390625 29.90625 48.703125 
Q 32.078125 49.03125 34.421875 49.03125 
Q 47.75 49.03125 55.171875 42.359375 
Q 62.59375 35.6875 62.59375 23.78125 
Q 62.59375 11.96875 54.515625 5.265625 
Q 46.4375 -1.421875 32.078125 -1.421875 
Q 25.875 -1.421875 19.796875 -0.21875 
Q 13.71875 0.984375 7.71875 3.421875 
L 7.71875 18.21875 
Q 13.671875 14.796875 19.015625 13.078125 
Q 24.359375 11.375 29.109375 11.375 
Q 35.9375 11.375 39.859375 14.71875 
Q 43.796875 18.0625 43.796875 23.78125 
Q 43.796875 29.546875 39.859375 32.859375 
Q 35.9375 36.1875 29.109375 36.1875 
Q 25.046875 36.1875 20.453125 35.125 
Q 15.875 34.078125 10.59375 31.890625 
z
" id="DejaVuSans-Bold-35"/>
    <path d="M 11.71875 12.984375 
L 28.328125 12.984375 
L 28.328125 60.109375 
L 11.28125 56.59375 
L 11.28125 69.390625 
L 28.21875 72.90625 
L 46.09375 72.90625 
L 46.09375 12.984375 
L 62.703125 12.984375 
L 62.703125 0 
L 11.71875 0 
z
" id="DejaVuSans-Bold-31"/>
    <path d="M 28.8125 13.8125 
L 60.890625 13.8125 
L 60.890625 0 
L 7.90625 0 
L 7.90625 13.8125 
L 34.515625 37.3125 
Q 38.09375 40.53125 39.796875 43.609375 
Q 41.5 46.6875 41.5 50 
Q 41.5 55.125 38.0625 58.25 
Q 34.625 61.375 28.90625 61.375 
Q 24.515625 61.375 19.28125 59.5 
Q 14.0625 57.625 8.109375 53.90625 
L 8.109375 69.921875 
Q 14.453125 72.015625 20.65625 73.109375 
Q 26.859375 74.21875 32.8125 74.21875 
Q 45.90625 74.21875 53.15625 68.453125 
Q 60.40625 62.703125 60.40625 52.390625 
Q 60.40625 46.4375 57.328125 41.28125 
Q 54.25 36.140625 44.390625 27.484375 
z
" id="DejaVuSans-Bold-32"/>
   </defs>
   <g transform="translate(455.3925 16.4775)scale(0.16 -0.16)">
    <use xlink:href="#DejaVuSans-Bold-45"/>
    <use x="68.310547" xlink:href="#DejaVuSans-Bold-4e"/>
    <use x="152.001953" xlink:href="#DejaVuSans-Bold-53"/>
    <use x="224.023438" xlink:href="#DejaVuSans-Bold-54"/>
    <use x="292.236328" xlink:href="#DejaVuSans-Bold-30"/>
    <use x="361.816406" xlink:href="#DejaVuSans-Bold-30"/>
    <use x="431.396484" xlink:href="#DejaVuSans-Bold-30"/>
    <use x="500.976562" xlink:href="#DejaVuSans-Bold-30"/>
    <use x="570.556641" xlink:href="#DejaVuSans-Bold-30"/>
    <use x="640.136719" xlink:href="#DejaVuSans-Bold-33"/>
    <use x="709.716797" xlink:href="#DejaVuSans-Bold-33"/>
    <use x="779.296875" xlink:href="#DejaVuSans-Bold-35"/>
    <use x="848.876953" xlink:href="#DejaVuSans-Bold-33"/>
    <use x="918.457031" xlink:href="#DejaVuSans-Bold-31"/>
    <use x="988.037109" xlink:href="#DejaVuSans-Bold-32"/>
   </g>
  </g>
 </g>
 <defs>
  <clipPath id="p40be424b39">
   <rect height="129.6" width="837" x="135" y="43.2"/>
  </clipPath>
 </defs>
</svg>
